<?xml version="1.0" encoding="utf-8"?>

<!DOCTYPE svg PUBLIC "-//W3C//DTD SVG 1.1//EN" "http://www.w3.org/Graphics/SVG/1.1/DTD/svg11.dtd">
<svg version="1.1" id="Layer_1" xmlns="http://www.w3.org/2000/svg" xmlns:xlink="http://www.w3.org/1999/xlink" x="0px" y="0px"
	 viewBox="0 0 1557.8033 1650.5341" enable-background="new 0 0 1557.8033 1650.5341" xml:space="preserve">
<g>
	<path fill="#FFFFFF" d="M670.6893,1166.3331c-0.1888,10.9808-9.2271,19.7224-20.208,19.5336
		c-10.765-0.1888-19.3716-8.9304-19.5065-19.6145c-1.0252,3.993-1.6727,8.1749-1.7537,12.4917
		c-0.5126,29.597,23.0679,54.041,52.6649,54.5536c29.624,0.5126,54.0409-23.0409,54.5805-52.6649
		c0.5126-29.597-23.0679-54.0409-52.6649-54.5536c-19.5875-0.3507-36.8277,9.8478-46.4595,25.3342
		c3.6153-3.3455,8.4987-5.396,13.8407-5.2881C662.1637,1146.314,670.9052,1155.3793,670.6893,1166.3331z M1039.9105,1251.9677
		c-10.6031-0.5667-18.7511-9.443-18.5353-19.9652c-1.1332,3.9121-1.9156,7.9861-2.1314,12.2219
		c-1.5109,29.1115,20.8825,53.933,49.967,55.4438c29.1113,1.4839,53.933-20.8824,55.4169-49.9939
		c1.5109-29.0845-20.8556-53.906-49.9669-55.4169c-19.2368-0.9983-36.531,8.4717-46.5405,23.3916
		c3.6963-3.1836,8.5526-5.0182,13.8137-4.7484c10.792,0.5396,19.0748,9.7397,18.5083,20.5317
		C1059.9027,1244.2244,1050.7025,1252.5072,1039.9105,1251.9677z M1287.2631,1254.3149
		c-44.7059,71.0112-98.0723,129.6388-162.5544,172.3751v0.027c-32.9156-3.5884-69.0958,9.9825-98.0992,27.6005
		c-8.9304,5.423-16.7816,12.6267-22.0157,21.0984c-119.5753,8.9574-211.5231-2.0505-283.9374-31.4586
		c-4.2629-1.6998-8.4178-3.5074-12.5457-5.369c-2.0775-1.2681-4.3438-2.3203-6.799-3.1567c-0.027-0.027-0.0809-0.054-0.1349-0.054
		c-57.4944-27.3037-101.8765-67.342-137.8947-119.1436c-4.8834-7.0419-9.6319-14.2994-14.2185-21.7729
		c-53.1236-91.3812-53.879-175.6666-17.537-254.9608c0,0,116.4727-29.678,79.1323-130.1785
		c105.7076-9.47,206.4239-56.55,303.0932-134.0096c1.1332-1.2141,2.2663-2.4282,3.3725-3.6423l2.4552,2.2933
		c3.2645,0.1619,6.5831,0.2428,9.9016,0.2698c44.5439,0.4047,92.1906-10.3603,104.3316-37.1245
		c0,0,120.9513,15.0548,170.1898,98.6928c23.0679,1.1871,45.5422,3.3995,67.423,6.772
		c-47.8086,102.7938,7.2036,177.0696,120.1958,235.2385c-31.7284,31.3508-62.2158,55.9026-93.8634,73.8712h-0.9442
		C1297.0568,1188.4298,1293.9811,1222.7483,1287.2631,1254.3149z"/>
	<path fill="#E6E6E6" d="M1532.9152,1421.7782h0.0271c-5.0183,74.7075-43.33,142.6432-105.6807,178.2297
		c-93.9174,53.5823-203.2942,17.5641-245.5719-67.0991c88.3595,23.3646,174.6415,12.9233,258.4684-37.5831
		C1471.4279,1476.4937,1502.3469,1452.0767,1532.9152,1421.7782z"/>
	<path fill="#EBEBEB" d="M1533.4548,1400.1672c-21.2333-62.2968-45.9469-115.3125-85.6885-128.3439
		c4.6676-16.2959,7.9591-33.2662,9.6049-51.0461C1508.6062,1274.2516,1532.2947,1338.6259,1533.4548,1400.1672z"/>
	<g>
		<path fill="#FFFFFF" d="M1447.7664,1271.8234c-1.484,5.1803-3.1295,10.2793-4.9105,15.3247
			c-13.8405,39.4987-36.0719,75.0314-63.8345,108.8373l-0.6475,0.7014c14.3265,13.6249,25.469,30.8651,32.241,49.9939l29.543,48.645
			c31.27-18.832,62.189-43.249,92.7574-73.5475h0.0271c0.4855-7.1497,0.6475-14.3534,0.5125-21.6111
			C1512.2219,1337.8705,1487.5078,1284.8547,1447.7664,1271.8234z"/>
		<path fill="#FFFFFF" d="M1378.3745,1396.6884c-19.6415-18.6971-45.2725-30.6223-73.8715-31.4048
			c-27.7356-0.7554-55.7675,12.0061-78.7545,35.5865c-24.9294,25.604-43.8965,63.9156-49.994,111.5084
			c-0.3773,3.1566-0.7285,6.3672-1.0249,9.6318c0.5396-0.2969,1.079-0.6206,1.6184-0.9174
			c1.6461,4.047,3.4265,7.9861,5.3427,11.8173c88.3595,23.3647,174.6415,12.9233,258.4678-37.5831l-29.543-48.645
			C1403.8435,1427.5535,1392.701,1410.3131,1378.3745,1396.6884z"/>
	</g>
	<path fill="#E9AFDF" d="M1488.6411,930.2298l-60.0035,108.8102c-12.6266,13.9218-24.9026,26.8451-36.9896,38.7703h-0.027
		c-112.9922-58.1688-168.0044-132.4448-120.1958-235.2385C1352.9318,855.0096,1425.9666,883.0418,1488.6411,930.2298z"/>
	<path fill="#E5E6E0" d="M1457.3712,1220.7772c-1.6458,17.7799-4.9373,34.7502-9.6049,51.0461
		c-1.4839,5.1802-3.1296,10.2794-4.9103,15.3247c-1.5649-95.4552-8.9574-181.3055-51.2081-209.3378
		c12.087-11.9252,24.363-24.8485,36.9896-38.7703l-1.376,2.4822C1453.702,1110.537,1462.2546,1169.1376,1457.3712,1220.7772z"/>
	<path fill="#FFFFFF" d="M1391.6479,1077.8103c42.2507,28.0322,49.6432,113.8826,51.2081,209.3378
		c-13.8408,39.4987-36.0723,75.0314-63.8347,108.8373l-0.6475,0.7014c-19.6415-18.6971-45.2725-30.6223-73.8712-31.4047
		c-27.7355-0.7555-55.7677,12.0061-78.7546,35.5865l-13.8947-1.7267c38.6622-38.1766,63.1332-86.9565,75.4091-144.8286
		c6.718-31.5665,9.7937-65.8851,9.5509-102.6318h0.9443c31.6475-17.9686,62.1349-42.5205,93.8633-73.8712H1391.6479z"/>
	<path d="M1074.6602,1194.256c29.1113,1.5109,51.4778,26.3324,49.9669,55.4169c-1.4839,29.1115-26.3055,51.4778-55.4169,49.9939
		c-29.0845-1.5109-51.4778-26.3324-49.967-55.4438c0.2158-4.2358,0.9982-8.3098,2.1314-12.2219
		c-0.2158,10.5222,7.9321,19.3986,18.5353,19.9652c10.792,0.5396,19.9922-7.7433,20.5317-18.5353
		c0.5667-10.792-7.7163-19.9922-18.5083-20.5317c-5.2611-0.2699-10.1174,1.5648-13.8137,4.7484
		C1038.1293,1202.7277,1055.4233,1193.2577,1074.6602,1194.256z"/>
	<path fill="#EDEDED" d="M1025.2598,670.7902c12.2759,21.2872,16.7006,48.2942,8.5526,66.3168
		c-12.1409,26.7641-59.7876,37.5291-104.3316,37.1245C929.4808,774.2315,1025.2328,727.0165,1025.2598,670.7902z"/>
	<path fill="#FFFFFF" d="M1025.2598,670.7632v0.027c-0.027,56.2263-95.779,103.4413-95.779,103.4413
		c-3.3185-0.027-6.637-0.1079-9.9016-0.2698l-2.4552-2.2933c37.8259-41.0096,63.2411-84.7172,74.114-131.6354
		C1005.1597,644.6736,1016.9769,656.4099,1025.2598,670.7632z"/>
	<path fill="#FFFFFF" d="M995.3929,557.1775c1.6997,13.7328,2.2393,27.2228,1.6458,40.443
		c-0.6205,14.4343-2.5631,28.5718-5.8007,42.4125c-10.8729,46.9182-36.2881,90.6258-74.114,131.6354
		c-1.1062,1.2141-2.2393,2.4282-3.3725,3.6423c-96.6693,77.4596-197.3856,124.5397-303.0932,134.0096
		c-32.9965-42.7633-91.7319-48.8878-128.1549-24.1471c-0.027,0-0.027,0-0.027,0c-5.5039,3.7502-10.4952,8.2019-14.812,13.3551
		c-38.9051-6.9879-73.0078-18.4274-102.6049-33.9678c-8.4178-4.4247-16.4848-9.1732-24.201-14.2454
		c-2.752-4.7755-5.45-9.5509-8.094-14.3264c-41.6571-74.8425-72.0096-148.9835-86.336-222.0993
		C183.9428,595.57,107.0768,541.9068,27.216,480.9051c-0.9983-1.9695-1.9695-3.9661-2.9138-5.9626
		c43.141-62.5666,129.8007-116.0949,232.0279-166.3856l88.1436-27.8703l83.638-52.1523
		c31.4317-14.2454,64.3203-18.6702,98.9086-11.7093c-31.1349-55.8216-44.3011-121.0862-47.6467-191.5579
		c110.4291,42.4665,194.148,108.9722,259.0079,192.4752C860.0073,273.9416,930.1553,377.14,981.2014,497.4168
		C988.3242,517.8676,993.0187,537.7789,995.3929,557.1775z M846.4634,580.5422c17.564-5.2881,24.7676-32.8347,16.134-61.5414
		c-8.6336-28.7337-29.8668-47.7276-47.4038-42.4665c-12.087,3.6423-19.2637,17.8877-19.7224,35.8024
		c0.9983-7.0148,6.9879-12.4378,14.2724-12.4378c8.0131,0,14.5153,6.5022,14.5153,14.4883c0,8.0131-6.5022,14.5153-14.5153,14.5153
		c-7.2036,0-13.1392-5.2881-14.2454-12.1949c0.2159,6.8259,1.376,14.0566,3.5884,21.3951
		C807.7201,566.8093,828.9264,585.8033,846.4634,580.5422z M559.5312,645.2402c0-26.6293-21.611-48.2133-48.2402-48.2133
		c-17.5909,0-32.9426,9.47-41.3603,23.5266c3.2106-3.0757,7.5544-4.9913,12.3568-4.9913c9.8747,0,17.8877,8.0131,17.8877,17.8877
		c0,9.8747-8.0131,17.8878-17.8877,17.8878c-9.6858,0-17.564-7.7163-17.8338-17.3481c-0.8904,3.6154-1.403,7.3925-1.403,11.2507
		c0,26.6563,21.611,48.2402,48.2402,48.2402S559.5312,671.8964,559.5312,645.2402z"/>
	<path d="M862.5974,519.0008c8.6336,28.7067,1.4299,56.2533-16.134,61.5414c-17.537,5.2611-38.7433-13.7328-47.3768-42.4395
		c-2.2124-7.3386-3.3725-14.5692-3.5884-21.3951c1.1062,6.9069,7.0418,12.1949,14.2454,12.1949
		c8.0131,0,14.5153-6.5022,14.5153-14.5153c0-7.9861-6.5022-14.4883-14.5153-14.4883c-7.2845,0-13.2741,5.423-14.2724,12.4378
		c0.4587-17.9147,7.6354-32.1601,19.7224-35.8024C832.7306,471.2732,853.9638,490.2671,862.5974,519.0008z"/>
	<path d="M683.801,1126.0775c29.597,0.5126,53.1776,24.9565,52.6649,54.5536c-0.5396,29.624-24.9565,53.1775-54.5805,52.6649
		c-29.597-0.5127-53.1776-24.9565-52.6649-54.5536c0.0809-4.3168,0.7285-8.4987,1.7537-12.4917
		c0.1349,10.6841,8.7415,19.4255,19.5065,19.6144c10.9808,0.189,20.0191-8.5526,20.208-19.5334
		c0.2158-10.9539-8.5257-20.0192-19.5065-20.208c-5.342-0.1079-10.2255,1.9425-13.8408,5.2881
		C646.9733,1135.9252,664.2136,1125.7268,683.801,1126.0775z"/>
	<path fill="#EBADE0" d="M708.11,1438.5867c4.1279,1.8617,8.2829,3.6693,12.5457,5.369l-0.9443,2.2664
		c18.4543,49.9939,7.3655,78.9974-39.7955,82.2889c-60.7319-5.45-92.6223-28.329-107.9199-61.1906l0.027-0.027
		c0,0,87.7389-46.0548,129.1532-31.9174c0.054,0,0.1079,0.027,0.1349,0.054C703.5504,1436.5363,705.8167,1437.5885,708.11,1438.5867
		z"/>
	<path fill="#FFFFFF" d="M701.1761,1435.3761c-41.4143-14.1375-129.1532,31.9174-129.1532,31.9174l-0.027,0.027
		c-6.5022-13.9757-10.0096-29.7319-11.4665-46.7294c2.1854-15.1897,2.8059-32.5648,2.4282-51.3159
		c-0.2428-11.6554-0.8903-23.8503-1.7537-36.369c-3.0757-5.2341-6.1784-10.3334-9.2542-15.2438l11.3316-1.4299
		C599.2997,1368.0341,643.6818,1408.0724,701.1761,1435.3761z"/>
	<path fill="#FFFFFF" d="M562.9576,1369.2751c0.3777,18.7511-0.2428,36.1262-2.4282,51.3159
		c-123.4335,187.5109-351.873,97.5867-426.2838-0.6744c-33.9408-44.8138-36.2071-140.5118-29.0035-204.3734
		c8.094,12.9503,17.2942,25.7928,27.2228,37.9338c36.8547,45.0835,83.7459,80.6971,121.8416,78.7545
		c19.6414-0.9982,37.8799-10.6301,55.6597-24.4438c105.8155-37.0165,192.9609-24.0392,252.9644,61.4874H562.9576z"/>
	<path fill="#E7E7E7" d="M562.9576,1369.2751h-0.027c-60.0035-85.5266-147.1488-98.5039-252.9644-61.4874
		c13.0853-10.1444,25.8738-22.6093,38.7702-35.5865c28.329-24.4709,57.953-46.001,91.0575-46.5405
		c38.1497-0.6205,75.3551,33.5361,112.1558,92.0017c3.0757,4.9104,6.1784,10.0096,9.2542,15.2438
		C562.0673,1345.4248,562.7148,1357.6198,562.9576,1369.2751z"/>
	<path d="M511.291,597.0269c26.6292,0,48.2402,21.584,48.2402,48.2133c0,26.6563-21.611,48.2402-48.2402,48.2402
		s-48.2402-21.584-48.2402-48.2402c0-3.8582,0.5126-7.6353,1.403-11.2507c0.2698,9.6318,8.1479,17.3481,17.8338,17.3481
		c9.8747,0,17.8877-8.0131,17.8877-17.8878c0-9.8746-8.0131-17.8877-17.8877-17.8877c-4.8025,0-9.1462,1.9156-12.3568,4.9913
		C478.3484,606.4969,493.7,597.0269,511.291,597.0269z"/>
	<path fill="#E6E6E6" d="M527.0203,216.8249c-34.5883-6.9608-67.477-2.5361-98.9086,11.7093
		c8.1479-76.1915,22.7711-146.2585,51.262-203.2672C482.7192,95.7387,495.8854,161.0033,527.0203,216.8249z"/>
	<path fill="#B2C5EA" d="M261.2674,1060.8669c-5.6388-5.8817-12.3568-11.2777-20.0461-16.269
		c-33.4282-21.53-85.7424-34.7772-151.2768-42.1967c8.3908-32.9965,28.248-65.6423,55.6867-95.2664l3.2376,2.1854
		C203.1525,961.9583,245.5111,1013.1123,261.2674,1060.8669z"/>
	<path fill="#FFFFFF" d="M610.6582,909.3203c-32.9965-42.7632-91.732-48.8877-128.155-24.1471c-0.027,0-0.027,0-0.027,0
		c-5.504,3.7502-10.4949,8.202-14.812,13.3551c-38.9049-6.9877-73.008-18.4274-102.6049-33.9677
		c-8.4174-4.4247-16.4844-9.1733-24.201-14.2455c-4.7755-3.1566-9.416-6.4213-13.9484-9.8208
		c-12.8965-9.7127-24.7141-20.4507-35.4784-32.1601l-0.9176,0.7015c-55.633,22.5552-107.3265,57.5214-144.8824,98.0992
		l3.2375,2.1854c54.2834,52.638,96.6425,103.7921,112.3984,151.5466c-5.6384-5.8816-12.357-11.2776-20.0459-16.2688
		c-33.4279-21.53-85.7425-34.7773-151.277-42.1968c-8.6335,34.0757-10.1175,74.087-5.8815,114.719h0.027
		c46.5945-20.0461,90.7874-31.6207,131.7158-31.6207c22.3402,0,43.6811,3.4536,63.9161,10.873
		c-59.491,30.1096-109.269,80.967-147.257,157.1045c36.8544,45.0836,83.746,80.6971,121.8414,78.7545
		c19.6415-0.9983,37.88-10.6301,55.6601-24.4438c13.0849-10.1445,25.874-22.6093,38.7699-35.5867
		c28.329-24.4708,57.9529-46.0007,91.0574-46.5404c38.1501-0.6205,75.3556,33.5361,112.156,92.0018l11.3315-1.4301
		c-4.8835-7.0417-9.6314-14.2993-14.2185-21.7728c-53.1234-91.3812-53.879-175.6666-17.537-254.9609
		C531.5257,1039.4987,647.9987,1009.8207,610.6582,909.3203z"/>
	<path fill="#B2C5EA" d="M215.8062,1085.4996c22.3394,0,43.6806,3.4534,63.9156,10.8729
		c-59.4909,30.1096-109.269,80.9669-147.2568,157.1045c-9.9286-12.141-19.1288-24.9835-27.2228-37.9338
		c-10.3873-31.2969-17.6989-65.0758-21.1793-98.4231h0.027C130.6843,1097.074,174.8775,1085.4996,215.8062,1085.4996z"/>
	
		<path fill="none" stroke="#000000" stroke-width="16.188" stroke-linecap="round" stroke-linejoin="round" stroke-miterlimit="10" d="
		M482.4763,885.1732c-5.5039,3.7502-10.4952,8.2019-14.812,13.3551c-38.9051-6.9879-73.0078-18.4274-102.6049-33.9678
		c-8.4178-4.4247-16.4848-9.1732-24.201-14.2454c-4.7755-3.1567-9.416-6.4213-13.9486-9.8207
		c-12.8965-9.7128-24.7137-20.4508-35.4787-32.1602c-34.7232-37.718-58.4926-85.4456-72.8729-141.8337
		C123.2648,613.2689,62.1012,550.7023,27.216,480.9051c-0.9983-1.9695-1.9695-3.9661-2.9138-5.9626
		c43.141-62.5666,129.8007-116.0949,232.0279-166.3856l88.1436-27.8703l83.638-52.1523
		c8.1479-76.1915,22.7711-146.2585,51.262-203.2672c110.4291,42.4665,194.148,108.9722,259.0079,192.4752
		C860.0073,273.9416,930.1553,377.14,981.2014,497.4168c7.1227,20.4508,11.8173,40.3621,14.1915,59.7607
		c1.6997,13.7328,2.2393,27.2228,1.6458,40.443c-0.6205,14.4343-2.5631,28.5718-5.8007,42.4125
		c-10.8729,46.9182-36.2881,90.6258-74.114,131.6354c-1.1062,1.2141-2.2393,2.4282-3.3725,3.6423
		c-96.6693,77.4596-197.3856,124.5397-303.0932,134.0096c-32.9965-42.7633-91.7319-48.8878-128.1549-24.1471"/>
	
		<path fill="none" stroke="#000000" stroke-width="16.188" stroke-linecap="round" stroke-linejoin="round" stroke-miterlimit="10" d="
		M967.2528,559.4708c0,0,13.1932-0.8094,28.1401-2.2933c14.6771-1.4569,31.0809-3.5613,38.4194-6.2324"/>
	
		<path fill="none" stroke="#000000" stroke-width="16.188" stroke-linecap="round" stroke-linejoin="round" stroke-miterlimit="10" d="
		M973.9978,596.3524c0,0,9.8746,1.4839,23.0409,1.2681c8.6066-0.1349,18.6432-1.0252,28.2211-3.5074"/>
	
		<path fill="none" stroke="#000000" stroke-width="16.188" stroke-linecap="round" stroke-linejoin="round" stroke-miterlimit="10" d="
		M295.9097,862.9957c0,0,14.785-10.1445,31-22.5013c1.9425-1.4839,3.8851-2.9948,5.8546-4.5056
		c13.9756-10.9269,27.8434-22.7441,33.2933-30.5414"/>
	
		<path fill="none" stroke="#000000" stroke-width="16.188" stroke-linecap="round" stroke-linejoin="round" stroke-miterlimit="10" d="
		M340.8584,888.6266c0.6745-0.2158,12.4648-11.8712,24.201-24.0662c11.7633-12.2219,23.4726-24.9295,23.9312-27.1958"/>
	
		<path fill="none" stroke="#000000" stroke-width="16.188" stroke-linecap="round" stroke-linejoin="round" stroke-miterlimit="10" d="
		M1025.2598,670.7902c12.2759,21.2872,16.7006,48.2942,8.5526,66.3168c-12.1409,26.7641-59.7876,37.5291-104.3316,37.1245
		c-3.3185-0.027-6.637-0.1079-9.9016-0.2698"/>
	
		<path fill="none" stroke="#000000" stroke-width="16.188" stroke-linecap="round" stroke-linejoin="round" stroke-miterlimit="10" d="
		M991.0761,639.9791c0.054,0.027,0.1079,0.027,0.1619,0.054c13.9217,4.6406,25.739,16.3769,34.0218,30.7302"/>
	
		<path fill="none" stroke="#000000" stroke-width="16.188" stroke-linecap="round" stroke-linejoin="round" stroke-miterlimit="10" d="
		M1033.8124,737.1071c0,0,120.9513,15.0548,170.1898,98.6927c23.0679,1.1871,45.5422,3.3995,67.423,6.772
		c81.5066,12.4378,154.5414,40.47,217.2159,87.658l-60.0035,108.8102l-1.376,2.4822
		c26.4404,69.0148,34.993,127.6154,30.1096,179.255c-1.6458,17.7799-4.9373,34.7502-9.6049,51.0461
		c-1.4839,5.1802-3.1296,10.2794-4.9103,15.3247c-13.8408,39.4987-36.0723,75.0314-63.8347,108.8373"/>
	
		<path fill="none" stroke="#000000" stroke-width="16.188" stroke-linecap="round" stroke-linejoin="round" stroke-miterlimit="10" d="
		M1391.6479,1077.8103c12.087-11.9252,24.363-24.8485,36.9896-38.7703c0.7284-0.8093,1.4569-1.6188,2.2124-2.4552"/>
	
		<path fill="none" stroke="#000000" stroke-width="16.188" stroke-linecap="round" stroke-linejoin="round" stroke-miterlimit="10" d="
		M1297.7577,1151.6815c31.6475-17.9686,62.1349-42.5205,93.8633-73.8712"/>
	
		<path fill="none" stroke="#000000" stroke-width="16.188" stroke-linecap="round" stroke-linejoin="round" stroke-miterlimit="10" d="
		M701.1761,1435.3761c-57.4944-27.3037-101.8765-67.342-137.8947-119.1437c-4.8834-7.0417-9.6318-14.2993-14.2184-21.7728
		c-53.1236-91.3812-53.8791-175.6666-17.537-254.9608c-24.8756,7.2306-45.5962,22.0696-57.3325,53.2854"/>
	
		<path fill="none" stroke="#000000" stroke-width="16.188" stroke-linecap="round" stroke-linejoin="round" stroke-miterlimit="10" d="
		M531.526,1039.4988c0,0,116.4726-29.678,79.1323-130.1785"/>
	
		<path fill="none" stroke="#000000" stroke-width="16.188" stroke-linecap="round" stroke-linejoin="round" stroke-miterlimit="10" d="
		M455.3075,920.3281c5.0182-13.2202,14.812-24.6597,27.1688-35.1549c0,0,0,0,0.027,0c0.2159-0.2159,0.4587-0.4047,0.6745-0.5936"/>
	
		<path fill="none" stroke="#000000" stroke-width="16.188" stroke-linecap="round" stroke-linejoin="round" stroke-miterlimit="10" d="
		M719.7114,1446.222c18.4543,49.9939,7.3655,78.9974-39.7955,82.2889c-60.7319-5.45-92.6223-28.329-107.9199-61.1906
		c-6.5022-13.9757-10.0096-29.7319-11.4665-46.7294c2.1854-15.1897,2.8059-32.5648,2.4282-51.3159
		c-0.2428-11.6554-0.8903-23.8503-1.7537-36.369c-3.0757-5.2341-6.1784-10.3334-9.2542-15.2438
		c-36.8007-58.4656-74.0061-92.6222-112.1558-92.0017c-33.1044,0.5396-62.7285,22.0696-91.0575,46.5405
		c-12.8964,12.9773-25.6849,25.4421-38.7702,35.5865c-17.7798,13.8137-36.0183,23.4457-55.6597,24.4438
		c-38.0957,1.9426-84.987-33.671-121.8416-78.7545c-9.9286-12.141-19.1288-24.9835-27.2228-37.9338
		c-7.2037,63.8616-4.9373,159.5596,29.0035,204.3734c74.4108,98.2611,302.8503,188.1853,426.2838,0.6744"/>
	
		<path fill="none" stroke="#000000" stroke-width="16.188" stroke-linecap="round" stroke-linejoin="round" stroke-miterlimit="10" d="
		M105.2422,1215.5432c-10.3873-31.2969-17.6989-65.0758-21.1793-98.4231c-4.2359-40.6318-2.752-80.6432,5.8816-114.7189
		c8.3908-32.9965,28.248-65.6423,55.6867-95.2664c37.5561-40.5779,89.2498-75.5439,144.8825-98.0992"/>
	
		<line fill="none" stroke="#000000" stroke-width="8.094" stroke-linecap="round" stroke-linejoin="round" stroke-miterlimit="10" x1="523.8906" y1="751.946" x2="537.8123" y2="762.2794"/>
	
		<line fill="none" stroke="#000000" stroke-width="8.094" stroke-linecap="round" stroke-linejoin="round" stroke-miterlimit="10" x1="542.318" y1="739.8051" x2="560.3136" y2="748.7894"/>
	
		<path fill="none" stroke="#000000" stroke-width="8.094" stroke-linecap="round" stroke-linejoin="round" stroke-miterlimit="10" d="
		M691.1666,720.0017c26.926,19.8843,41.6031,7.0688,44.9487-35.9643c23.1218,14.839,40.9017,17.8877,46.7833-5.396"/>
	
		<line fill="none" stroke="#000000" stroke-width="8.094" stroke-linecap="round" stroke-linejoin="round" stroke-miterlimit="10" x1="910.1362" y1="576.1174" x2="925.4338" y2="579.7057"/>
	
		<line fill="none" stroke="#000000" stroke-width="8.094" stroke-linecap="round" stroke-linejoin="round" stroke-miterlimit="10" x1="906.5478" y1="584.6701" x2="920.9282" y2="593.6544"/>
	
		<line fill="none" stroke="#000000" stroke-width="8.094" stroke-linecap="round" stroke-linejoin="round" stroke-miterlimit="10" x1="590.4233" y1="1271.3108" x2="612.6818" y2="1260.5188"/>
	
		<line fill="none" stroke="#000000" stroke-width="8.094" stroke-linecap="round" stroke-linejoin="round" stroke-miterlimit="10" x1="616.2971" y1="1277.3813" x2="627.7636" y2="1266.3464"/>
	
		<line fill="none" stroke="#000000" stroke-width="8.094" stroke-linecap="round" stroke-linejoin="round" stroke-miterlimit="10" x1="634.7244" y1="1282.9932" x2="646.4067" y2="1269.9618"/>
	
		<line fill="none" stroke="#000000" stroke-width="8.094" stroke-linecap="round" stroke-linejoin="round" stroke-miterlimit="10" x1="1031.5461" y1="1339.8669" x2="1046.1693" y2="1323.2473"/>
	
		<line fill="none" stroke="#000000" stroke-width="8.094" stroke-linecap="round" stroke-linejoin="round" stroke-miterlimit="10" x1="1051.7811" y1="1335.3883" x2="1066.1884" y2="1319.632"/>
	
		<line fill="none" stroke="#000000" stroke-width="8.094" stroke-linecap="round" stroke-linejoin="round" stroke-miterlimit="10" x1="1078.7611" y1="1342.3491" x2="1086.6393" y2="1323.2473"/>
	
		<path fill="none" stroke="#000000" stroke-width="8.094" stroke-linecap="round" stroke-linejoin="round" stroke-miterlimit="10" d="
		M777.3676,1336.6294c12.4918,31.027,31.9983,37.1514,59.356,15.4865c15.2167,19.9113,34.4804,30.6493,59.0322,29.3542"/>
	<path fill="#EAEAEA" d="M1124.7086,1426.6901c64.4822-42.7363,117.8485-101.3639,162.5544-172.3751
		c-12.2759,57.8721-36.7468,106.6519-75.4091,144.8285c-15.028,14.839-32.2411,28.1132-51.6937,39.6606
		c-10.9539-6.9608-22.96-10.765-35.4517-12.087V1426.6901z"/>
	<path fill="#FFFFFF" d="M1225.7487,1400.8702c-24.9296,25.604-43.8965,63.9155-49.9939,111.5082l-1.2141-0.054
		c-53.3395,17.2942-113.1001,22.4474-167.4918,12.8156c-12.7346-18.2385-11.1967-35.6946-2.4552-49.7241
		c5.2341-8.4717,13.0853-15.6754,22.0157-21.0984c29.0034-17.6179,65.1836-31.1888,98.0992-27.6005
		c12.4917,1.322,24.4978,5.1262,35.4517,12.087c19.4526-11.5475,36.6658-24.8217,51.6937-39.6606L1225.7487,1400.8702z"/>
	<path fill="#E6E6E6" d="M1175.7548,1512.3784c-0.3778,3.1567-0.7285,6.3673-1.0253,9.632
		c-69.4735,38.7701-142.913,38.6083-167.6806,3.1296c54.3917,9.6318,114.1523,4.4786,167.4918-12.8156L1175.7548,1512.3784z"/>
	
		<path fill="none" stroke="#000000" stroke-width="16.188" stroke-linecap="round" stroke-linejoin="round" stroke-miterlimit="10" d="
		M1457.3718,1220.7788C1457.7495,1221.1835,1457.0211,1220.374,1457.3718,1220.7788
		c51.235,53.4742,74.9235,117.8485,76.0836,179.3899c0.1349,7.2576-0.027,14.4613-0.5127,21.611
		c-5.0182,74.7076-43.3298,142.6432-105.6805,178.2299c-93.9174,53.5822-203.2942,17.564-245.5719-67.0992
		c-1.9155-3.8312-3.6963-7.7703-5.342-11.8173c-0.5396,0.2968-1.0792,0.6205-1.6188,0.9174
		c-69.4735,38.7701-142.913,38.6083-167.6806,3.1296c-12.7346-18.2385-11.1967-35.6946-2.4552-49.7241
		c5.2341-8.4717,13.0853-15.6754,22.0157-21.0984c29.0034-17.6179,65.1836-31.1888,98.0992-27.6005
		c12.4917,1.322,24.4978,5.1262,35.4517,12.087c19.4526-11.5475,36.6658-24.8217,51.6937-39.6606
		c38.6622-38.1766,63.1332-86.9564,75.4091-144.8285c6.718-31.5667,9.7937-65.8851,9.5509-102.632
		c-0.1079-21.7189-1.403-44.3011-3.7772-67.6658"/>
	
		<path fill="none" stroke="#000000" stroke-width="16.188" stroke-linecap="round" stroke-linejoin="round" stroke-miterlimit="10" d="
		M1174.5406,1524.0068c0.054-0.6744,0.1079-1.349,0.1888-1.9965c0.2968-3.2646,0.6475-6.4752,1.0253-9.632
		c6.0974-47.5927,25.0643-85.9042,49.9939-111.5082c22.9869-23.5806,51.0192-36.342,78.7546-35.5867
		c28.5988,0.7825,54.2297,12.7076,73.8711,31.4047c14.3264,13.625,25.4691,30.8651,32.2411,49.994"/>
	
		<path fill="none" stroke="#000000" stroke-width="16.188" stroke-linecap="round" stroke-linejoin="round" stroke-miterlimit="10" d="
		M1001.2212,1475.4159c-0.8094,0.054,4.1819-0.054,3.3725,0c-119.5753,8.9574-211.5231-2.0505-283.9374-31.4586
		c-4.2629-1.6998-8.4178-3.5074-12.5457-5.369c-2.2933-0.9983-4.5596-2.0505-6.799-3.1567"/>
</g>
</svg>
